<svg width="15" height="16" viewBox="0 0 15 16" fill="none" xmlns="http://www.w3.org/2000/svg">
<path opacity="0.5" d="M6.99998 0.5C7.46023 0.5 7.83331 0.8731 7.83331 1.33333C7.83331 1.76069 7.51162 2.11292 7.09717 2.16106L6.99998 2.16667H2.83331C2.40595 2.16667 2.05372 2.48837 2.00559 2.90282L1.99998 3V13C1.99998 13.4274 2.32168 13.7796 2.73613 13.8277L2.83331 13.8333H6.58331C7.04356 13.8333 7.41665 14.2064 7.41665 14.6667C7.41665 15.094 7.09496 15.4463 6.6805 15.4944L6.58331 15.5H2.83331C1.50192 15.5 0.413596 14.4593 0.337557 13.1469L0.333313 13V3C0.333313 1.6686 1.37408 0.580283 2.68642 0.504244L2.83331 0.5H6.99998ZM11.7558 5.05372L14.1129 7.41075C14.4383 7.73617 14.4383 8.26383 14.1129 8.58925L11.7558 10.9462C11.4304 11.2717 10.9028 11.2717 10.5773 10.9462C10.2519 10.6208 10.2519 10.0932 10.5773 9.76775L11.5118 8.83333H6.99998C6.53973 8.83333 6.16665 8.46025 6.16665 8C6.16665 7.53975 6.53973 7.16667 6.99998 7.16667H11.5118L10.5773 6.23223C10.2519 5.9068 10.2519 5.37916 10.5773 5.05372C10.9028 4.72828 11.4304 4.72828 11.7558 5.05372Z" fill="white"/>
</svg>
