<svg width="16" height="16" viewBox="0 0 16 16" fill="none" xmlns="http://www.w3.org/2000/svg">
<path fill-rule="evenodd" clip-rule="evenodd" d="M0.5 3C0.5 1.61929 1.61929 0.5 3 0.5H13C14.3808 0.5 15.5 1.61929 15.5 3V13C15.5 14.3808 14.3808 15.5 13 15.5H3C1.61929 15.5 0.5 14.3808 0.5 13V3ZM9.66667 9.66667C9.66667 9.20642 10.0398 8.83333 10.5 8.83333H13.8333V3C13.8333 2.53977 13.4602 2.16667 13 2.16667H3C2.53977 2.16667 2.16667 2.53977 2.16667 3V8.83333H5.5C5.96023 8.83333 6.33333 9.20642 6.33333 9.66667C6.33333 10.5872 7.0795 11.3333 8 11.3333C8.9205 11.3333 9.66667 10.5872 9.66667 9.66667Z" fill="white" fill-opacity="0.5"/>
</svg>
