<svg width="18" height="17" viewBox="0 0 18 17" fill="none" xmlns="http://www.w3.org/2000/svg">
<path fill-rule="evenodd" clip-rule="evenodd" d="M0.66687 3C0.66687 1.61929 1.78616 0.5 3.16687 0.5H14.8335C16.2143 0.5 17.3335 1.61929 17.3335 3V11.3333C17.3335 12.7141 16.2143 13.8333 14.8335 13.8333H5.11131L2.33354 15.9167C1.64684 16.4317 0.66687 15.9417 0.66687 15.0833V3ZM4.83354 5.5C4.83354 5.03977 5.20664 4.66667 5.66687 4.66667H12.3335C12.7938 4.66667 13.1669 5.03977 13.1669 5.5C13.1669 5.96023 12.7938 6.33333 12.3335 6.33333H5.66687C5.20664 6.33333 4.83354 5.96023 4.83354 5.5ZM5.66687 8C5.20664 8 4.83354 8.37308 4.83354 8.83333C4.83354 9.29358 5.20664 9.66667 5.66687 9.66667H8.16687C8.62712 9.66667 9.0002 9.29358 9.0002 8.83333C9.0002 8.37308 8.62712 8 8.16687 8H5.66687Z" fill="white" fill-opacity="0.5"/>
</svg>
