<svg width="14" height="18" viewBox="0 0 14 18" fill="none" xmlns="http://www.w3.org/2000/svg">
<path d="M2.83334 1.50002V2.33335C2.83334 3.25383 3.57954 4.00002 4.50001 4.00002H9.50001C10.4205 4.00002 11.1667 3.25383 11.1667 2.33335V1.50002H12C12.9205 1.50002 13.6667 2.24621 13.6667 3.16669V12.3334C13.6667 15.0948 11.4281 17.3334 8.66668 17.3334H2.00001C1.07954 17.3334 0.333344 16.5872 0.333344 15.6667V3.16669C0.333344 2.24621 1.07954 1.50002 2.00001 1.50002H2.83334ZM7.00001 10.6667H4.50001C4.03978 10.6667 3.66668 11.0398 3.66668 11.5C3.66668 11.9603 4.03978 12.3334 4.50001 12.3334H7.00001C7.46026 12.3334 7.83334 11.9603 7.83334 11.5C7.83334 11.0398 7.46026 10.6667 7.00001 10.6667ZM9.50001 7.33335H4.50001C4.03978 7.33335 3.66668 7.70644 3.66668 8.16669C3.66668 8.59406 3.98838 8.94628 4.40283 8.99441L4.50001 9.00002H9.50001C9.96026 9.00002 10.3333 8.62694 10.3333 8.16669C10.3333 7.70644 9.96026 7.33335 9.50001 7.33335ZM8.66668 0.666687C9.12693 0.666687 9.50001 1.03979 9.50001 1.50002C9.50001 1.92738 9.17832 2.27961 8.76386 2.32775L8.66668 2.33335H5.33334C4.87311 2.33335 4.50001 1.96025 4.50001 1.50002C4.50001 1.07266 4.82171 0.720431 5.23616 0.672293L5.33334 0.666687H8.66668Z" fill="white" fill-opacity="0.5"/>
</svg>
