<svg width="16" height="16" viewBox="0 0 16 16" fill="#000" xmlns="http://www.w3.org/2000/svg">
<path d="M11.3333 0.5C11.7936 0.5 12.1667 0.8731 12.1667 1.33333V2.16667H13.8333C14.712 2.16667 15.4318 2.84656 15.4954 3.70895L15.5 3.83333V13.8333C15.5 14.712 14.8201 15.4318 13.9577 15.4954L13.8333 15.5H2.16667C1.28803 15.5 0.568196 14.8201 0.504571 13.9577L0.5 13.8333V3.83333C0.5 2.9547 1.1799 2.23486 2.04228 2.17124L2.16667 2.16667H3.83333V1.33333C3.83333 0.8731 4.20643 0.5 4.66667 0.5C5.1269 0.5 5.5 0.8731 5.5 1.33333V2.16667H10.5V1.33333C10.5 0.8731 10.8731 0.5 11.3333 0.5ZM10.3534 5.81565L6.81792 9.35117L5.63939 8.17267C5.31396 7.84725 4.78632 7.84725 4.46088 8.17267C4.13544 8.49808 4.13544 9.02575 4.46088 9.35117L6.22276 11.1131C6.55142 11.4417 7.08433 11.4417 7.41308 11.1131L11.5319 6.99417C11.8574 6.66875 11.8574 6.14109 11.5319 5.81565C11.2065 5.49022 10.6788 5.49022 10.3534 5.81565Z" fill="white"/>
</svg>
