<svg width="18" height="16" viewBox="0 0 18 16" fill="none" xmlns="http://www.w3.org/2000/svg">
<path fill-rule="evenodd" clip-rule="evenodd" d="M7.30397 0.340678C6.99656 0.119403 6.56297 0.0159193 6.13655 0.171944C5.22216 0.506503 4.38336 0.996328 3.65191 1.609C3.30434 1.90013 3.17722 2.3267 3.21494 2.70326C3.27776 3.33059 3.16704 3.9363 2.86561 4.45839C2.56403 4.98074 2.09452 5.37963 1.51944 5.63887C1.17381 5.79468 0.867273 6.11894 0.789582 6.56675C0.708715 7.033 0.666656 7.51192 0.666656 8.00009C0.666656 8.48817 0.708715 8.96717 0.78959 9.43334C0.867282 9.88117 1.17382 10.2054 1.51945 10.3613C2.09452 10.6205 2.56403 11.0194 2.86561 11.5418C3.16703 12.0638 3.27776 12.6695 3.21494 13.2968C3.17723 13.6734 3.30435 14.1 3.65191 14.3911C4.38334 15.0038 5.22211 15.4936 6.13647 15.8281C6.56292 15.9842 6.99653 15.8807 7.30394 15.6593C7.81616 15.2907 8.39657 15.0833 8.99999 15.0833C9.60341 15.0833 10.1838 15.2907 10.6961 15.6593C11.0035 15.8807 11.4371 15.9842 11.8635 15.8281C12.7778 15.4936 13.6166 15.0038 14.348 14.3912C14.6956 14.1 14.8227 13.6734 14.785 13.2968C14.7222 12.6695 14.8328 12.0638 15.1342 11.5418C15.4358 11.0194 15.9054 10.6205 16.4805 10.3613C16.8262 10.2054 17.1327 9.88117 17.2104 9.43334C17.2912 8.96717 17.3333 8.48817 17.3333 8.00009C17.3333 7.512 17.2912 7.03309 17.2104 6.56692C17.1327 6.11907 16.8262 5.79479 16.4805 5.63899C15.9054 5.37974 15.4358 4.98085 15.1342 4.4585C14.8328 3.93639 14.7222 3.33064 14.785 2.70327C14.8227 2.32669 14.6956 1.90009 14.348 1.60894C13.6166 0.996303 12.7778 0.506494 11.8634 0.171944C11.437 0.0159277 11.0034 0.119403 10.696 0.340678C10.1838 0.709361 9.60341 0.916694 8.99999 0.916694C8.39657 0.916694 7.81616 0.709361 7.30397 0.340678ZM6.49999 8C6.49999 6.61925 7.61924 5.5 8.99999 5.5C10.3807 5.5 11.5 6.61925 11.5 8C11.5 9.38075 10.3807 10.5 8.99999 10.5C7.61924 10.5 6.49999 9.38075 6.49999 8Z" fill="white" fill-opacity="0.5"/>
</svg>
